<?xml version="1.0" encoding="utf-8"?>
<!-- Generator: Adobe Illustrator 27.7.0, SVG Export Plug-In . SVG Version: 6.00 Build 0)  -->
<svg version="1.1" id="Camada_1" xmlns="http://www.w3.org/2000/svg" xmlns:xlink="http://www.w3.org/1999/xlink" x="0px" y="0px"
	 viewBox="0 0 612 542" style="enable-background:new 0 0 612 542;" xml:space="preserve">
<style type="text/css">
	.st0{fill:#FCF5F5;}
</style>
<g>
	<path class="st0" d="M346.5,302.3c-1.1-1.5-2-3.2-3.5-4.3c-4.1-3.1-4.2-7.4-4.2-12c0-14.5-0.4-28.9-0.7-43.4
		c-0.1-2.8,0.9-5.6-0.6-8.6c-1.4,2.8-0.8,5.6-0.8,8.3c0.1,22.3,0.2,44.5,0.5,66.8c0.2,17.4,0.4,34.9,0.8,52.3
		c0.1,3.2-0.7,5.3-3.4,7.2c-12.9,9.1-25.7,18.3-38.5,27.5c-1,0.7-1.9,1.4-3.9,2.8c0-7.1,0-13.4,0-19.7c0-13.8,0.1-27.6,0-41.4
		c-0.2-23.8-0.5-47.6-0.8-71.5c-0.1-12.6-0.2-25.2-0.3-37.9c0-1.4,0.4-2.2,1.5-3.1c9.3-7.9,19.3-14.8,28.9-22.3
		c13-10,25.9-20.1,38.9-30c9.7-7.3,19.5-14.5,29.3-21.6c14.5-10.6,29.5-20.6,45.1-29.5c2.3-1.3,2.5-1.9,0.6-3.8
		c-9.9-9.9-21-18.2-33-25.5c-9.5-5.7-19.1-11.2-29.3-15.3c-16-6.5-32.5-11.2-49.8-13.4c-12.9-1.6-25.8-2.4-38.6-1.2
		c-17.8,1.7-35.4,5.1-51.7,13c-0.2,0.1-0.5,0.1-1.4,0.1c0-8.7,0-17.3,0-25.8c0-0.5,0.1-1,0.1-1.5c-0.2-7.7-0.2-7.6,7.1-9.6
		c11.1-3,22.2-5.4,33.6-6.5c10.1-0.9,20.3-1.1,30.5-1.1c14.4,0.1,28.4,2.1,42.5,4.9c14.4,2.8,28.2,7.2,41.8,12.7
		c10.9,4.4,21.3,9.6,31.4,15.5c14.2,8.3,27.8,17.4,39.9,28.6c5.3,4.9,10.4,9.9,14.9,15.6c0.6,0.8,1.3,1.1,2.2,0.8
		c4.9-1.1,9.8,0,14.7-0.3c3.5-0.2,7-0.1,10.2,2.3c0.6,0.4,3.4,0,5.2,0.5c10.9,2.8,20.1,8.4,26.9,17.3c4.1,5.4,5.5,11.8,4.4,18.6
		c-0.5,3.3-3.4,4.6-5.7,6c-24.3,15.6-48.2,31.9-71.4,49.2c-12.7,9.5-25.5,18.7-38.3,28c-12.7,9.2-25.6,18.3-38.3,27.5
		c-4.7,3.4-4.5,3.5-0.2,7.1c19,15.8,40.3,20.8,64.4,14.8c13.8-3.5,27-8.7,40-14.3c11.7-5.1,23.2-10.8,34.7-16.3
		c1.3-0.6,2.5-1.7,3.9-2.2c1.9-0.7,2.3-1.4,1-3.2c-1.8-2.6-0.7-5.8-1.1-8.7c-0.3-1.9-0.3-3.9-0.8-5.8c0,3.6,0,7.2,0,10.8
		c0,1.4-0.1,2.7-0.2,4.1c-0.1,1.7-1.1,2.5-2.7,2.5c-1.8,0-1.7-1.4-1.8-2.7c-1-7.1-0.1-14.4-1.6-21.5c-10.6,5.1-20.2,11.7-30.1,17.9
		c-3.4,2.1-6.6,4.4-9.9,6.6c-1.6,1.1-2.6,1.2-2.6-1.4c-0.1-10.5-0.2-21-0.6-31.5c-0.1-2.4,1.1-3.6,2.6-4.5
		c15.3-9.7,30.4-19.9,47.7-26c19.3-6.8,38.6-7.1,57.4,1.2c13.1,5.8,23.6,14.7,27.3,29.5c3,11.9-0.6,22-8.3,31
		c-8.3,9.7-19.1,16.1-30.3,21.7c-2.2,1.1-4.1,2.6-6.7,3.2c-2.5,0.6-3.7,2.7-3.7,5.3c0,9.5-0.7,18.9-1.2,28.3
		c-0.4,7.6-2.3,14.9-2.4,22.6c0,2.3-1.1,4.9-1.7,7.4c-1.5,6.5-2.2,13.4-4.8,19.5c-2.3,5.4-3.2,11.2-6.4,16.4
		c-3.5,5.6-5.3,12.2-8.1,18.3c-1.3,2.9-3.2,5.5-4.8,8.3c-4.9,7.9-9.8,15.8-14.6,23.7c-0.4,0.7-0.7,1.5-0.8,2.6
		c2.2-6.2,7.2-4.6,11.6-4.7c18.2-0.1,34.9-5.1,50.7-13.8c1.3-0.7,2.6-1.3,4.1-2.1c1.1,5.1,0.4,10,0.5,14.9c0.2,6-0.1,11.9-0.1,17.9
		c0,2.3-0.6,3.5-2.9,4.5c-19.1,8.3-38.9,12.4-59.7,11.8c-6.5-0.2-13.1-0.3-19.5-2.1c-0.7-0.2-1.6-0.2-2.1-0.6
		c-3.8-3.6-5.7,0.1-7.9,2.1c-5.8,5.5-11.1,11.6-17.2,16.7c-6.6,5.5-13.2,11.1-20.2,16.3c-12.8,9.5-26.4,17.8-40.4,25.5
		c-7.6,4.1-15.5,7.7-23.3,11.5c-2.1,1-4,2.6-6.6,2.2c-0.6-0.1-0.8,0.8-1,1.4c-0.4,1.4-0.7,2.2-1.8,0.2c-0.8-1.5-1.5,2.2-2.8,0.5
		c-2.2,2.6-5.8,1.2-8,2.5c-3.7,2.2-8.6,1.2-11.5,5.1c-0.9,1.3-2.8-1.3-4.4,0.7c-0.8,1-3.8-0.1-5.4,0.6c-5.9,2.5-12.4,1.8-18.3,3.6
		c-5.6,1.6-11.4,0.7-16.9,2.4c-1.7,0.5-3.5,1.5-5.1,1.3c-1.8-0.2-3.5-1.2-5.5-0.6c-4.6,1.3-9.6,1.1-14.2,1.3
		c-4.2,0.2-8.7,0.1-13-0.3c-6.3-0.6-12.6-0.5-18.9-1.1c-14.8-1.3-29.5-3.7-44-7.3c-15.1-3.8-29.8-9-43.9-15.5
		c-16.6-7.5-32.6-16.1-47.3-27c-4.7-3.5-10.2-5.9-14-10.6c-2-2.4-4.5-1.8-7-0.6c-6.9,3.3-14.1,5.7-21.5,7.5
		c-17.9,4.4-35.5,3-51.8-5.2c-12.8-6.4-22.9-16.6-26.7-30.8c-3.7-13.7-1.1-27.2,5.2-39.8c5.6-11.3,13.3-21.2,21.4-30.8
		c14.1-16.7,30.8-30.6,47.4-44.7c12.5-10.6,25.5-20.8,38.3-31c10.2-8.1,20.6-15.9,30.9-24c6-4.8,12.2-9.5,18.6-13.9
		c2.2-1.5,4-3.6,6.4-4.9c3.8-2.2,2.6-6,2.7-9.2c0.3-17.6,0.4-35.3,0.5-52.9c0.1-13.1-0.1-26.2,0.1-39.2c0.1-14.7,0.9-29.4,0.7-44.1
		c-0.3-15.2,0.1-30.5,0-45.7c-0.1-13.7,0-27.4-0.1-41c0-1.7,0.6-2.7,1.8-3.8c7.6-6.4,16.3-11.4,24.3-17.3c3.6-2.7,7.3-5.2,11.9-8.4
		c0,5,0,9.3,0,13.5c0,16.5-0.1,32.9-0.1,49.4c0,14.2-0.1,28.4,0.1,42.6c0.1,11.2,0.1,22.4,0.1,33.6c0,11.9-0.3,23.9-0.3,35.8
		c0,17.4,0,34.8,0,52.2c0,0.9-0.2,2,0.5,2.4c1,0.6,1.8-0.4,2.6-1c13.3-10.1,26.3-20.4,39.8-30.1c11.4-8.2,22.3-17.1,33.8-25.2
		c2.8-2,4.5-4.3,4.4-8.3c-0.4-19.4-0.3-38.9-0.5-58.4c0-2.7,1.6-3.8,3.2-5c6.3-4.7,12.8-9.2,19.1-13.7c6.6-4.7,13-9.6,19.7-14.2
		c3-2.1,3.6-1.6,3.6,1.8c0,9.1-0.3,18.1,0.1,27.2c0.4,8.4,0.3,16.9,0.6,25.3c0.1,5.6,0.2,11.3-0.3,16.9c-0.5,5.2,0,10.5,0.3,15.7
		c0.1,2.8-0.5,4.9-2.9,6.7c-16.2,11.8-32.4,23.6-48.6,35.5c-5.6,4.1-11.1,8.4-16.7,12.5c-1.6,1.2-2.4,2.5-2.1,4.4
		c1.4,7.6-1.6,12.5-8.1,16.4c-5.8,3.5-11,7.9-16.4,12c-20.4,15.5-41,30.8-61.2,46.6c-3.4,2.6-6.9,5.3-10.3,7.6
		c-4.7,3.1-8.5,7.3-13.4,10c-1.2,0.7-2.7,1.1-1.6,3c0.1,0.3,0.3,0.8-0.2,0.7c-5.5-1-7.9,4-11.4,6.4c-8,5.4-15.4,11.7-23,17.8
		c-11.9,9.6-24,19.1-35,29.8c-2,1.9-3.3,3.8-3.8,7.2c-0.7-1.7,0.7-2.3,0.1-3.1c-2.8,1.5-5.6,9.2-3.3,10.9c2.6,1.9,2.2,4.7,3.6,6.9
		c4.2,6.3,7.2,13.4,12.1,19.2c2.2,2.6,4,5.5,6,8.2c0.7,1,0.8,2.9,2.9,1.8c0.2-0.1,1,0.5,1,0.7c-1.4,5,4.2,5.8,5.6,9
		c0.5,1.1,1.8-0.1,2.4-0.8c6.7-6.4,12.8-13.4,18.5-20.8c8.7-11.5,16.4-23.7,24.4-35.7c13-19.4,28-37.2,45.3-53
		c13.7-12.5,28.1-24.3,42.9-35.5c7.4-5.6,14.7-11.3,23.1-17.7c0,4.7,0,8.4,0,12.2c0,8.5-0.1,17.1,0.1,25.6c0,2.6-0.5,4.6-2.8,6.3
		c-11.8,8.7-23.4,17.8-34,27.9c-10.3,9.7-20,19.9-28.2,31.5c-2.8,3.9-5.4,8-8.4,11.8c-1.2,1.6-0.5,1.9,0.9,2.6
		c-2.6-0.2-3.6,1.7-4.7,3.4c-5.4,8.2-10.6,16.5-16.3,24.4c-1.1,1.5,0.6,3.7-0.9,3.5c-2.6-0.3-2.6,1.9-3.4,3
		c-5.7,8.2-11.5,16.3-18.4,23.7c-3.3,3.5-6.2,7.4-9.9,10.6c-2.3,2-2.2,5,0.5,5.8c3.2,0.9,4.4,3.7,6.7,5.4
		c8.9,6.5,18.4,11.9,28.2,16.7c15.4,7.6,31.5,13.6,48.2,17.6c8.5,2,17.2,3.2,26,4c5.9,0.5,11.8,1.6,17.7,1.5
		c9.8-0.3,19.5,0.5,29.3-0.6c9-1,18-2,27-3.6c12.2-2.2,24.4-5.1,36.2-9c14.5-4.7,28.7-10.3,42-18c7.9-4.6,15.6-9.4,23.2-14.6
		c8.5-5.8,16.5-12.1,24.2-18.9c4.4-3.9,4-6.4-0.9-9.8c-15.1-10.1-28.3-22.4-39.8-36.6c-14.1-17.4-26.3-36.2-40.3-53.6
		c-4-4.9-8.6-9.6-12.6-14.4c-4.4-5.4-9.4-10.5-13.3-16.3c-1.4-2.1-3.5-3.8-4.5-6.3c-0.6-1.3-0.9-2.6-0.7-4c0.2-1.7,1-1.8,2.2-0.8
		c1.6,1.4,3.1,2.8,4.6,4.2C346.2,302.6,346.3,302.4,346.5,302.3z M392.5,314c1.5-0.4,2.7,0.2,3.7,1.2c2.1,2.2,4.3,4.3,6.1,6.7
		c12.8,16.5,24.5,33.8,37.6,50c10.8,13.4,23,25.2,37.7,34.3c1.8,1.1,2.5,0.8,3.5-0.5c9.2-11.7,17-24.3,23.3-37.8
		c3.5-7.4,5.9-15.2,8.4-23c5-15.8,8.7-31.7,8.9-48.4c0-2.2,0.8-3.9,3.1-5c2.5-1.3,4.8-3.1,7.2-4.7c0.4-0.3,1.5-0.1,1.1-1.1
		c-0.3-0.7-1-0.7-1.8-0.4c-3.4,1.3-6.9,2.4-10.4,3.7c-11.6,4.5-22.8,9.9-34.3,14.6c-19.8,8-40,13.3-61.5,13
		c-14.3-0.2-28.1-2.6-40.2-10.7c-8.8-5.9-17.7-11.6-25.9-18.4c-1-0.8-2-1.5-3-2.2c-0.9-0.6-1.5-1.6-2.9-1.6
		c13,12.8,30.5,19.9,41,35.5C394.6,316.8,392.7,315.7,392.5,314z M484.9,144.3c-3.3-0.6-6.1-1.8-8.2,1.4c-0.5,0.8-1.2,1.4-2.5,1.1
		c-3.5-0.9-7.4-0.5-10.5,0.4c-8.8,2.7-17.4,6.4-25.3,11.1c-11.8,7-22.9,14.9-34,22.9c-12.2,8.9-24.3,17.8-36.4,26.8
		c-7.8,5.8-15.4,11.8-23.2,17.5c-2.5,1.9-2.2,3.5-0.5,5.5c1.8,2.2,3.7,4.3,5.5,6.6c1.9,2.3,3.4,2.6,6,0.6
		c7.6-5.9,15.2-11.6,23.1-17.1c15-10.4,29.5-21.4,44.4-31.9c13-9.3,26-18.6,39-28C469.7,155.7,477.6,150.9,484.9,144.3z M58.9,422.5
		c-1.5,0.8-0.3,2.1-1.2,2.6c-0.6-1.4-0.7-3.3-4.1-2c2.8-2.2,3.2-3.7,1.3-5.6c-1.1-1.1-0.6-3.5-3.6-2.9c-1.2,0.3-3.9-0.6-3.8,0.5
		c0.4,3.9-3,5.7-4.3,8.7c-1,2.4-1.3,4.7-1.5,7.1c0,0.4,1.7,1.5,1,2.5c-1.2,1.6-1.6-1.7-2.7-0.8c-1.2,1.4,1.5,2.1,0.3,3.4
		c-2.7,2.9-0.9,5.8,0,8.6c1,2.9,3.6,4.9,5.9,6.1c4.6,2.5,9.6,3.9,15.1,4.3c5.9,0.4,11.3-0.8,16.9-2.6c-0.9-0.9-2-0.8-2.1-2.1
		c-0.2-2.5-2.1-4.4-2.4-7c-0.2-1.9-1.8-2.1-3.4-1.6c-0.2,0.1-0.3,0.8-0.7,0.5c-0.2-0.1-0.2-0.7-0.1-1c0.6-3.7-1.2-5-4.7-5.1
		c-1.7,0-3.2-0.8-2.6-3.2c1.2,2.1,2.9,2.5,5.5,2C64,430.8,59.7,427.9,58.9,422.5z M556,235.7c0.4,0.1,0.8,0.1,1.2,0.2
		c2.4-1.7,4.8-3.4,7.3-5c5.6-3.8,6.7-8.7,2.6-13.7c-2.5-3.1-6.5-5.1-10.1-4.5c-2.7,0.4-0.3,4.5-1,6.8c0,0.1,0,0.2,0,0.4
		C556,225.1,556,230.4,556,235.7z M394.9,292.1c22.8,3.4,44.8-1,66.5-7.2c17.3-4.9,58-23.1,61.2-27.3c-1.4,0.5-2.6,0.9-3.7,1.4
		c-13,6-25.9,12-38.8,18c-15.2,7-31.2,11.5-47.9,13.7C419.8,292.2,407.4,292.7,394.9,292.1z M440.5,127.4c10-3.8,19.9-7.8,30.2-10.8
		C459.7,117.6,449.9,122.1,440.5,127.4z M452.2,132.5c10.4-3.1,20.8-6,31.4-7.9C472.6,125.2,462.2,128,452.2,132.5z M554.2,300.3
		c1.3-7.8,1.3-15.6,0-23.4C554.2,284.7,554.2,292.5,554.2,300.3z M577.6,201.3c-5-5.5-14.4-9.7-21-9.6c3.8,1,7.4,2.4,10.9,3.9
		C571.1,197.1,574.2,199.4,577.6,201.3z M489.5,150.5c-5.1,2-15.1,9.5-16.8,12.6C478.5,159,484.1,155.2,489.5,150.5z M385.7,281.7
		c6.3,2.3,12.7,3.3,19.4,2.4C398.6,283.8,392.2,282.3,385.7,281.7z M389,61.9c-0.4,0.1-0.4,0.3-0.1,0.5c5.7,2.8,11.4,5.6,17.1,8.3
		C400.7,66.9,394.8,64.4,389,61.9z M456.1,300.8c-6.8,1-13.6,2-21.1,3C442.6,304.1,449.3,302.9,456.1,300.8z M511.8,279.4
		c-5.7,2.3-10.4,4.1-14.8,6.7C501.9,284.5,506.8,282.7,511.8,279.4z M308.8,45.7c0.1-0.1,0.1-0.2,0.2-0.3c-5.5,0-11.1,0-16.6,0
		c0,0.1,0,0.2,0,0.3C297.9,45.7,303.4,45.7,308.8,45.7z M300.9,38c-4.4-0.8-8.8-0.7-13,0C292.1,38,296.5,38,300.9,38z M306.8,531.9
		c-3.6,0.3-7.2,0.7-10.9,1C299.6,533,303.3,533.7,306.8,531.9z"/>
	<path class="st0" d="M142.7,108.2c3.5-0.9,5.8-3.8,9.4-5c0.9,5.3,0.4,10.5,0.5,15.7c0,1.6-1,3.1-2.4,4
		c-7.1,4.6-13.4,10.4-19.4,16.1c-5.8,5.4-11.2,11.3-16.5,17.3c-6.5,7.3-12.2,15.1-17.6,23.2c-4.3,6.5-7.5,13.7-11.4,20.4
		c-3.6,6.3-6.2,13.1-8.8,19.8c-2.3,6.2-5.2,12.3-6.7,18.6c-1.2,4.9-3.5,9.6-4.1,14.7c-0.2,1.7-0.7,3.5,1.2,4.7
		c0.4,0.3,1.1,0.6,0.6,1c-0.3,0.3-1.5,0.5-1.6,0.3c-0.9-1.5-1.8-1-1.6,0.3c0.9,4.6-1.9,8.5-1.8,13c0.1,4.6-1,9.3-0.9,14
		c0.1,7.5-1,15.1,0.7,22.4c1.2,4.9-0.9,9.5,0.1,14.2c0.3,1.2-1.2,1.8-2,2.5c-10,8.1-20.1,16.2-30.2,24.3c-1,0.8-1.2,0.9-2.5-0.4
		c-2.6-2.5-2-5.2-2-7.9c0-4.1-1.8-8-1.4-12.2c0-0.2,0-0.6-0.1-0.7c-2.9-3-0.6-6.5-1.2-9.8c-0.6-3.7,0.1-7.6-0.5-11.1
		c-0.5-2.5,0.1-4.8,0-7.1c-0.3-6.8-0.8-13.7,0.1-20.4c0.6-4.3,1.5-8.8,1.9-13.1c0.8-9.1,3.2-17.8,5.4-26.5
		c2.9-11.4,7-22.4,11.3-33.3c3-7.8,7.3-15,10.6-22.6c1.6-3.6,4-6.7,6-10.1c5-8.7,10.9-16.8,16.9-24.8c4.7-6.3,10.1-12.1,15.4-18.1
		c3.9-4.4,8.1-8.5,12.2-12.6c5.2-5.2,10.5-10.3,16.4-14.7c6.1-4.6,11.8-9.6,17.7-14.4c4.3-3.6,9.1-6.5,13.7-9.7
		c2.2-1.5,2.9-1.1,2.8,1.6c-0.2,5.7-0.2,11.5-0.1,17.2c0,1.4-0.5,2.2-1.6,3C148.2,103.9,145.5,106.1,142.7,108.2z M32.4,272.4
		c0.6-3.1,1.2-6.2,1.7-9.4C32.8,266,32.3,269.2,32.4,272.4z"/>
	<path class="st0" d="M269,394.5c0,18.1,0,36.3,0,54.5c0,3.4,0,6.8,0.2,10.2c0.2,2.9-0.8,4.7-3,6.6c-2.5,2.2-6.6,2.8-7.5,6.8
		c-4.4-0.5-6.5,3.2-9.4,5.2c-3.8,2.6-7.3,5.7-11,8.5c-2.2,1.6-5,2.1-6.8,4.4c-0.6,0.8-1.4,0.2-1.7-1c-0.7-2.9-0.3-5.9-0.3-8.8
		c-0.1-26.4,0-52.9,0-79.3c0-11.3,0-22.5-0.3-33.8c-0.1-2.4,0.8-3.8,2.4-5c11.4-8.6,22.8-17.2,34.2-25.8c0.6-0.5,1.1-1.9,2.4-1
		c1.2,0.7,0.2,1.6,0.2,2.3c0,18.7,0,37.5,0,56.2C268.6,394.5,268.8,394.5,269,394.5z"/>
</g>
</svg>
